<svg xmlns="http://www.w3.org/2000/svg" version="1.1" xmlns:xlink="http://www.w3.org/1999/xlink" xmlns:svgjs="http://svgjs.dev/svgjs" width="1000" height="1000" viewBox="0 0 1000 1000"><rect width="1000" height="1000" fill="#000000"></rect><g transform="matrix(0.7,0,0,0.7,149.57575757575756,448.4847006679731)"><svg viewBox="0 0 396 59" data-background-color="#ffffff" preserveAspectRatio="xMidYMid meet" height="148" width="1000" xmlns="http://www.w3.org/2000/svg" xmlns:xlink="http://www.w3.org/1999/xlink"><g id="tight-bounds" transform="matrix(1,0,0,1,0.2400000000000091,-0.16213648079548193)"><svg viewBox="0 0 395.52 59.32427296159095" height="59.32427296159095" width="395.52"><g><svg viewBox="0 0 483.3579155284015 72.49913258230308" height="59.32427296159095" width="395.52"><g transform="matrix(1,0,0,1,87.83791552840155,20.00608649428689)"><svg viewBox="0 0 395.52 32.486959593729296" height="32.486959593729296" width="395.52"><g><svg viewBox="0 0 395.52 32.486959593729296" height="32.486959593729296" width="395.52"><g><svg viewBox="0 0 395.52 32.486959593729296" height="32.486959593729296" width="395.52"><g transform="matrix(1,0,0,1,0,0)"><svg width="395.52" viewBox="2.200000047683716 -36.099998474121094 455.3800048828125 37.19999694824219" height="32.486959593729296" data-palette-color="#ea9937"><g class="undefined-text-0" data-fill-palette-color="primary" id="text-0"><path d="M2.2-16.25Q2.2-21.65 4.3-26 6.4-30.35 10.78-33.02 15.15-35.7 21.15-35.7L21.15-35.7Q24.2-35.7 27.3-34.8 30.4-33.9 32.25-33L32.25-33 34.1-32.05Q34.25-32.05 34.6-32.3 34.95-32.55 35.18-32.55 35.4-32.55 35.65-32.35 35.9-32.15 35.93-31.23 35.95-30.3 36.13-28.68 36.3-27.05 36.45-26 36.6-24.95 36.6-24.75L36.6-24.75Q36.6-23.85 36-23.85L36-23.85Q35.55-23.85 35.15-24.55L35.15-24.55Q30.3-33.65 21.15-33.65L21.15-33.65Q14.9-33.65 10.9-29.65 6.9-25.65 6.9-19.2L6.9-19.2Q6.9-12 10.6-6.9L10.6-6.9Q12.5-4.3 15.8-2.8 19.1-1.3 23.5-1.3L23.5-1.3Q30.7-1.3 35.6-8.8L35.6-8.8Q35.8-9.15 36.35-9.15L36.35-9.15Q36.8-9.15 36.8-8.53 36.8-7.9 36.63-6.98 36.45-6.05 36.2-4.93 35.95-3.8 35.9-3.55L35.9-3.55Q35.8-3 35.1-2.65L35.1-2.65Q32.4-1.35 30.9-0.7L30.9-0.7Q26.9 1 22.38 1 17.85 1 14.35-0.05 10.85-1.1 8.63-2.8 6.4-4.5 4.9-6.8L4.9-6.8Q2.2-10.85 2.2-16.25ZM46.1-11.55L46.1-17.75 46.25-26.4Q46.25-27.75 46.15-30.95L46.15-30.95Q46.1-32.4 44.9-33.2 43.7-34 42.65-34.02 41.6-34.05 41.47-34.23 41.35-34.4 41.35-34.75L41.35-34.75Q41.35-35.65 42.7-35.65L42.7-35.65 44.05-35.55 48.4-35.35 53.65-35.55Q54.5-35.55 54.5-35.05L54.5-35.05Q54.5-34.35 53.9-34.13 53.3-33.9 52.57-33.83 51.85-33.75 51.17-32.73 50.5-31.7 50.4-29.7 50.3-27.7 50.15-18.75 50-9.8 50-8.75L50-8.75 50-6.75Q50-3.15 51.22-2.78 52.45-2.4 53.35-2.4L53.35-2.4Q60.85-2.4 64.15-3.6L64.15-3.6Q67.15-4.7 67.75-5.9L67.75-5.9Q68.4-7.15 68.9-7.15L68.9-7.15Q69.5-7.15 69.5-6.3L69.5-6.3Q69.5-4.15 67.35-1.95 65.2 0.25 63.6 0.25L63.6 0.25Q60 0.25 55.47 0 50.95-0.25 49.85-0.25L49.85-0.25 43.6 0.15Q42.15 0.15 42.15-0.45L42.15-0.45Q42.15-0.8 42.42-1.03 42.7-1.25 43.2-1.25 43.7-1.25 44.5-1.85 45.3-2.45 45.7-4.33 46.1-6.2 46.1-11.55L46.1-11.55ZM76.45-17.25L76.45-20.1 76.5-25.5 76.5-27.8Q76.5-30 76.32-31.33 76.15-32.65 74.97-33.3 73.8-33.95 72.65-34 71.5-34.05 71.5-34.77 71.5-35.5 72.9-35.5L72.9-35.5 78.55-35.3 82.95-35.4Q84.3-35.4 84.3-34.7L84.3-34.7Q84.3-34.3 82-33.35L82-33.35Q80.4-32.7 80.4-27.6L80.4-27.6 80.25-9.1Q80.25-4.9 81.42-3.2 82.59-1.5 83.9-1.5L83.9-1.5 84.9-1.45Q85.25-1.45 85.59-1.28 85.95-1.1 85.95-0.7L85.95-0.7Q85.95 0 84.7 0L84.7 0 79.95-0.2 74.45 0.05Q72.2 0.05 72.2-0.7L72.2-0.7Q72.2-1.4 73.75-1.6L73.75-1.6Q74.34-1.65 75-2.23 75.65-2.8 75.82-3.53 76-4.25 76.22-9.58 76.45-14.9 76.45-17.25L76.45-17.25ZM89.09-16.25Q89.09-21.65 91.19-26 93.29-30.35 97.67-33.02 102.04-35.7 108.04-35.7L108.04-35.7Q111.09-35.7 114.19-34.8 117.29-33.9 119.14-33L119.14-33 120.99-32.05Q121.14-32.05 121.49-32.3 121.84-32.55 122.07-32.55 122.29-32.55 122.54-32.35 122.79-32.15 122.82-31.23 122.84-30.3 123.02-28.68 123.19-27.05 123.34-26 123.49-24.95 123.49-24.75L123.49-24.75Q123.49-23.85 122.89-23.85L122.89-23.85Q122.44-23.85 122.04-24.55L122.04-24.55Q117.19-33.65 108.04-33.65L108.04-33.65Q101.79-33.65 97.79-29.65 93.79-25.65 93.79-19.2L93.79-19.2Q93.79-12 97.49-6.9L97.49-6.9Q99.39-4.3 102.69-2.8 105.99-1.3 110.39-1.3L110.39-1.3Q117.59-1.3 122.49-8.8L122.49-8.8Q122.69-9.15 123.24-9.15L123.24-9.15Q123.69-9.15 123.69-8.53 123.69-7.9 123.52-6.98 123.34-6.05 123.09-4.93 122.84-3.8 122.79-3.55L122.79-3.55Q122.69-3 121.99-2.65L121.99-2.65Q119.29-1.35 117.79-0.7L117.79-0.7Q113.79 1 109.27 1 104.74 1 101.24-0.05 97.74-1.1 95.52-2.8 93.29-4.5 91.79-6.8L91.79-6.8Q89.09-10.85 89.09-16.25ZM133.19-13.4L133.19-20.1 133.09-25.5 133.09-27.8Q133.09-30.35 132.94-31.5 132.79-32.65 131.67-33.3 130.54-33.95 129.39-34 128.24-34.05 128.24-34.73 128.24-35.4 129.64-35.4L129.64-35.4 135.29-35.3 139.59-35.4Q140.44-35.4 140.44-34.75L140.44-34.75Q140.44-34.45 139.72-34.15 138.99-33.85 138.69-33.7L138.69-33.7Q137.14-32.8 137.14-27.6L137.14-27.6 136.99-19.8Q136.99-18.75 137.39-18.75 137.79-18.75 141.44-21.73 145.09-24.7 148.69-28.18 152.29-31.65 152.29-32.75L152.29-32.75Q152.29-33.35 151.79-33.58 151.29-33.8 151.04-33.88 150.79-33.95 150.34-34.02 149.89-34.1 149.79-34.15L149.79-34.15Q149.24-34.25 149.24-34.83 149.24-35.4 150.04-35.4L150.04-35.4 151.29-35.35 154.29-35.25 160.49-35.4Q161.49-35.4 161.49-34.75L161.49-34.75Q161.49-34.4 161.19-34.23 160.89-34.05 160.04-33.8 159.19-33.55 158.77-33.38 158.34-33.2 156.14-31.8L156.14-31.8Q155.69-31.5 151.22-27.73 146.74-23.95 141.79-19.8L141.79-19.8 141.24-19.1Q141.24-18.85 142.69-17.4 144.14-15.95 149.49-10.65 154.84-5.35 156.89-3.63 158.94-1.9 160.59-1.65 162.24-1.4 162.44-1L162.44-1Q162.49-0.9 162.49-0.58 162.49-0.25 162.06-0.15 161.64-0.05 159.59-0.05L159.59-0.05 154.74-0.05Q153.94-0.05 153.54-0.53 153.14-1 152.74-1.4L152.74-1.4Q150.89-3.55 149.89-4.55L149.89-4.55Q139.29-15.3 138.74-15.75L138.74-15.75Q138.19-16.2 137.79-16.2L137.79-16.2Q137.09-16.2 137.09-14.85L137.09-14.85 137.09-14.7 137.14-13.55 137.14-11Q137.14-4.45 137.99-2.98 138.84-1.5 141.24-1.5L141.24-1.5 141.64-1.45Q141.99-1.45 142.34-1.28 142.69-1.1 142.69-0.7L142.69-0.7Q142.69 0 141.44 0L141.44 0 136.69-0.2 131.19 0.05Q129.39 0.05 129.39-0.5L129.39-0.5 129.39-0.7Q129.39-1.05 129.84-1.2L129.84-1.2Q131.69-1.65 132.27-2.23 132.84-2.8 133.02-5.33 133.19-7.85 133.19-13.4L133.19-13.4Z" fill="#ffffff" data-fill-palette-color="primary"></path><path d="M207.14-1.25L207.14-1.25 208.94-1.4Q209.59-1.4 209.59-0.95L209.59-0.95Q209.59-0.15 208.17 0.4 206.74 0.95 204.77 0.95 202.79 0.95 200.99 0.43 199.19-0.1 197.94-0.83 196.69-1.55 195.74-2.3 194.79-3.05 194.22-3.58 193.64-4.1 193.49-4.1 193.34-4.1 192.77-3.58 192.19-3.05 191.24-2.27 190.29-1.5 188.94-0.7L188.94-0.7Q185.74 1.1 180.39 1.1L180.39 1.1Q176.84 1.1 173.99 0.08 171.14-0.95 169.47-2.3 167.79-3.65 166.62-6.2 165.44-8.75 165.44-12.1L165.44-12.1Q165.44-13.8 166.02-15.63 166.59-17.45 167.62-18.73 168.64-20 170.17-20.8 171.69-21.6 172.62-21.8 173.54-22 173.54-22.13 173.54-22.25 172.94-22.98 172.34-23.7 171.74-25.18 171.14-26.65 171.14-28.55L171.14-28.55Q171.14-31.85 174.04-33.52 176.94-35.2 180.54-35.2L180.54-35.2Q182.29-35.2 183.84-34.63 185.39-34.05 185.59-34.05L185.59-34.05 186.69-34.2Q187.49-34.2 187.49-33.05L187.49-33.05 187.69-29.65Q187.69-28.2 187.62-27.9 187.54-27.6 187.19-27.6 186.84-27.6 186.09-28.5 185.34-29.4 184.49-30.48 183.64-31.55 182.22-32.45 180.79-33.35 178.87-33.35 176.94-33.35 175.79-32.13 174.64-30.9 174.64-29.58 174.64-28.25 176.02-26.28 177.39-24.3 178.81-22.8 180.24-21.3 183.42-18.13 186.59-14.95 190.09-11.95 193.59-8.95 193.97-8.95 194.34-8.95 194.64-9.4L194.64-9.4Q195.34-10.35 195.34-12.68 195.34-15 194.82-16.13 194.29-17.25 193.89-17.53 193.49-17.8 192.82-18.13 192.14-18.45 191.62-18.5 191.09-18.55 190.84-18.68 190.59-18.8 190.59-19.18 190.59-19.55 190.82-19.65 191.04-19.75 191.84-19.75L191.84-19.75 199.29-19.65Q200.24-19.65 200.24-19L200.24-19Q200.24-18.45 199.29-18.2L199.29-18.2Q198.94-18.1 198.62-17.6 198.29-17.1 198.24-16.35 198.19-15.6 198.09-14.85L198.09-14.85Q197.79-11.7 197.26-10.4 196.74-9.1 196.37-8.35 195.99-7.6 195.99-7.45L195.99-7.45Q195.99-7 198.97-5.13 201.94-3.25 204.99-1.75L204.99-1.75Q205.99-1.25 207.14-1.25ZM172.09-6.4L172.09-6.4Q173.69-4.6 176.59-3.43 179.49-2.25 182.37-2.25 185.24-2.25 187.32-2.98 189.39-3.7 190.44-4.42 191.49-5.15 191.49-5.45L191.49-5.45Q191.49-5.65 190.19-6.63 188.89-7.6 185.89-10.15 182.89-12.7 180.99-14.6L180.99-14.6Q178.39-17.2 176.94-18.65 175.49-20.1 175.27-20.35 175.04-20.6 174.89-20.7 174.74-20.8 174.59-20.9L174.59-20.9Q174.44-21.05 174.19-21.05L174.19-21.05Q172.54-21.05 170.64-18.95 168.74-16.85 168.74-13.5 168.74-10.15 172.09-6.4Z" fill="#ffffff" data-fill-palette-color="primary"></path><path d="M211.79-16.25Q211.79-21.65 213.89-26 215.99-30.35 220.37-33.02 224.74-35.7 230.74-35.7L230.74-35.7Q233.79-35.7 236.89-34.8 239.99-33.9 241.84-33L241.84-33 243.69-32.05Q243.84-32.05 244.19-32.3 244.54-32.55 244.77-32.55 244.99-32.55 245.24-32.35 245.49-32.15 245.52-31.23 245.54-30.3 245.72-28.68 245.89-27.05 246.04-26 246.19-24.95 246.19-24.75L246.19-24.75Q246.19-23.85 245.59-23.85L245.59-23.85Q245.14-23.85 244.74-24.55L244.74-24.55Q239.89-33.65 230.74-33.65L230.74-33.65Q224.49-33.65 220.49-29.65 216.49-25.65 216.49-19.2L216.49-19.2Q216.49-12 220.19-6.9L220.19-6.9Q222.09-4.3 225.39-2.8 228.69-1.3 233.09-1.3L233.09-1.3Q240.29-1.3 245.19-8.8L245.19-8.8Q245.39-9.15 245.94-9.15L245.94-9.15Q246.39-9.15 246.39-8.53 246.39-7.9 246.22-6.98 246.04-6.05 245.79-4.93 245.54-3.8 245.49-3.55L245.49-3.55Q245.39-3 244.69-2.65L244.69-2.65Q241.99-1.35 240.49-0.7L240.49-0.7Q236.49 1 231.97 1 227.44 1 223.94-0.05 220.44-1.1 218.22-2.8 215.99-4.5 214.49-6.8L214.49-6.8Q211.79-10.85 211.79-16.25ZM252.14-16.95L252.14-16.95Q252.14-25.35 257.19-30.73 262.24-36.1 271.49-36.1L271.49-36.1Q275.79-36.1 279.24-34.85 282.69-33.6 284.69-31.78 286.69-29.95 288.04-27.6L288.04-27.6Q290.39-23.5 290.39-19.6L290.39-19.6Q290.39-12.8 287.74-8.1L287.74-8.1Q282.69 0.8 270.79 0.8L270.79 0.8Q264.84 0.8 260.51-1.8 256.19-4.4 254.16-8.35 252.14-12.3 252.14-16.95ZM256.54-19.5L256.54-19.5Q256.54-15.05 258.89-10.4L258.89-10.4Q260.14-7.9 261.91-5.93 263.69-3.95 266.41-2.68 269.14-1.4 272.39-1.4L272.39-1.4Q276.09-1.4 279.69-3.55L279.69-3.55Q283.69-5.9 285.34-10.1L285.34-10.1Q286.29-12.35 286.29-15L286.29-15Q286.29-24.05 281.54-29.08 276.79-34.1 269.79-34.1L269.79-34.1Q264.29-34.1 260.41-30.4 256.54-26.7 256.54-19.5ZM298.34-11.55L298.34-17.75 298.49-26.4Q298.49-27.75 298.39-30.95L298.39-30.95Q298.34-32.4 297.14-33.2 295.93-34 294.89-34.02 293.84-34.05 293.71-34.23 293.59-34.4 293.59-34.75L293.59-34.75Q293.59-35.65 294.93-35.65L294.93-35.65 296.29-35.55 300.64-35.35 305.89-35.55Q306.74-35.55 306.74-35.05L306.74-35.05Q306.74-34.35 306.14-34.13 305.54-33.9 304.81-33.83 304.09-33.75 303.41-32.73 302.74-31.7 302.64-29.7 302.54-27.7 302.39-18.75 302.24-9.8 302.24-8.75L302.24-8.75 302.24-6.75Q302.24-3.15 303.46-2.78 304.68-2.4 305.59-2.4L305.59-2.4Q313.09-2.4 316.39-3.6L316.39-3.6Q319.39-4.7 319.99-5.9L319.99-5.9Q320.64-7.15 321.14-7.15L321.14-7.15Q321.74-7.15 321.74-6.3L321.74-6.3Q321.74-4.15 319.59-1.95 317.43 0.25 315.84 0.25L315.84 0.25Q312.24 0.25 307.71 0 303.18-0.25 302.09-0.25L302.09-0.25 295.84 0.15Q294.39 0.15 294.39-0.45L294.39-0.45Q294.39-0.8 294.66-1.03 294.93-1.25 295.43-1.25 295.93-1.25 296.74-1.85 297.54-2.45 297.93-4.33 298.34-6.2 298.34-11.55L298.34-11.55ZM328.48-11.55L328.48-17.75 328.63-26.4Q328.63-27.75 328.53-30.95L328.53-30.95Q328.48-32.4 327.28-33.2 326.08-34 325.03-34.02 323.98-34.05 323.86-34.23 323.73-34.4 323.73-34.75L323.73-34.75Q323.73-35.65 325.08-35.65L325.08-35.65 326.43-35.55 330.78-35.35 336.03-35.55Q336.88-35.55 336.88-35.05L336.88-35.05Q336.88-34.35 336.28-34.13 335.68-33.9 334.96-33.83 334.23-33.75 333.56-32.73 332.88-31.7 332.78-29.7 332.68-27.7 332.53-18.75 332.38-9.8 332.38-8.75L332.38-8.75 332.38-6.75Q332.38-3.15 333.61-2.78 334.83-2.4 335.73-2.4L335.73-2.4Q343.23-2.4 346.53-3.6L346.53-3.6Q349.53-4.7 350.13-5.9L350.13-5.9Q350.78-7.15 351.28-7.15L351.28-7.15Q351.88-7.15 351.88-6.3L351.88-6.3Q351.88-4.15 349.73-1.95 347.58 0.25 345.98 0.25L345.98 0.25Q342.38 0.25 337.86 0 333.33-0.25 332.23-0.25L332.23-0.25 325.98 0.15Q324.53 0.15 324.53-0.45L324.53-0.45Q324.53-0.8 324.81-1.03 325.08-1.25 325.58-1.25 326.08-1.25 326.88-1.85 327.68-2.45 328.08-4.33 328.48-6.2 328.48-11.55L328.48-11.55ZM358.68-11.55L358.68-17.75 358.83-26.4Q358.83-27.75 358.73-30.95L358.73-30.95Q358.68-32.4 357.48-33.2 356.28-34 354.68-34.05L354.68-34.05Q353.88-34.05 353.88-34.95L353.88-34.95Q353.88-35.65 355.28-35.65L355.28-35.65 356.63-35.55 368.83-35.3 378.83-35.5Q379.78-35.5 379.78-34.35L379.78-34.35Q379.78-34.05 379.48-32.38 379.18-30.7 379.18-29.75L379.18-29.75Q379.18-28.15 378.41-28.15 377.63-28.15 377.63-29.35 377.63-30.55 376.78-31.65 375.93-32.75 374.68-32.8L374.68-32.8Q370.18-33.15 367.78-33.15L367.78-33.15 366.48-33.15Q363.88-33.15 363.48-32.8L363.48-32.8Q362.73-32.15 362.73-21.75L362.73-21.75Q362.73-19.25 363.68-19.2L363.68-19.2 368.58-19.2Q371.58-19.2 372.58-19.4L372.58-19.4Q375.18-19.9 375.53-22L375.53-22Q375.68-22.85 376.18-22.85 376.68-22.85 376.78-22.7 376.88-22.55 376.88-22.05L376.88-22.05 376.48-16.8 376.63-13.75Q376.63-12.5 376.28-12.5L376.28-12.5Q375.53-12.5 375.18-13.7L375.18-13.7Q374.48-15.8 373.93-16.15L373.93-16.15Q372.88-16.85 370.28-16.85L370.28-16.85 366.68-16.85 365.08-16.9 364.73-16.9Q362.68-16.9 362.68-15.95L362.68-15.95 362.58-8.75 362.58-6.75Q362.58-3.15 363.81-2.78 365.03-2.4 365.93-2.4L365.93-2.4Q373.43-2.4 376.78-3.6L376.78-3.6Q379.73-4.7 380.38-5.9L380.38-5.9Q380.98-7.15 381.48-7.15L381.48-7.15Q382.08-7.15 382.08-6.3L382.08-6.3Q382.08-4.15 379.93-1.95 377.78 0.25 376.18 0.25L376.18 0.25Q372.58 0.25 368.06 0 363.53-0.25 362.43-0.25L362.43-0.25 355.63 0.2Q354.58 0.2 354.58-0.3L354.58-0.3 354.58-0.9Q354.58-1.2 355.08-1.3L355.08-1.3Q355.63-1.35 356.78-1.9 357.93-2.45 358.31-4.2 358.68-5.95 358.68-11.55L358.68-11.55ZM385.28-16.25Q385.28-21.65 387.38-26 389.48-30.35 393.85-33.02 398.23-35.7 404.23-35.7L404.23-35.7Q407.28-35.7 410.38-34.8 413.48-33.9 415.33-33L415.33-33 417.18-32.05Q417.33-32.05 417.68-32.3 418.03-32.55 418.25-32.55 418.48-32.55 418.73-32.35 418.98-32.15 419-31.23 419.03-30.3 419.2-28.68 419.38-27.05 419.53-26 419.68-24.95 419.68-24.75L419.68-24.75Q419.68-23.85 419.08-23.85L419.08-23.85Q418.63-23.85 418.23-24.55L418.23-24.55Q413.38-33.65 404.23-33.65L404.23-33.65Q397.98-33.65 393.98-29.65 389.98-25.65 389.98-19.2L389.98-19.2Q389.98-12 393.68-6.9L393.68-6.9Q395.58-4.3 398.88-2.8 402.18-1.3 406.58-1.3L406.58-1.3Q413.78-1.3 418.68-8.8L418.68-8.8Q418.88-9.15 419.43-9.15L419.43-9.15Q419.88-9.15 419.88-8.53 419.88-7.9 419.7-6.98 419.53-6.05 419.28-4.93 419.03-3.8 418.98-3.55L418.98-3.55Q418.88-3 418.18-2.65L418.18-2.65Q415.48-1.35 413.98-0.7L413.98-0.7Q409.98 1 405.45 1 400.93 1 397.43-0.05 393.93-1.1 391.7-2.8 389.48-4.5 387.98-6.8L387.98-6.8Q385.28-10.85 385.28-16.25ZM426.62-35.9Q427.28-35.9 430.7-35.7 434.12-35.5 444.18-35.5 454.23-35.5 456.33-35.8L456.33-35.8Q456.88-35.8 457.08-35.5 457.28-35.2 457.28-34.95L457.28-34.95 457.58-30.9Q457.58-29.65 457.43-29.33 457.28-29 456.78-29L456.78-29Q456.38-29 456.1-30.03 455.83-31.05 455.53-31.6L455.53-31.6Q454.78-32.9 451.18-32.9L451.18-32.9 444.68-32.9Q443.48-32.9 443.2-32.43 442.93-31.95 442.93-29.7L442.93-29.7 442.93-27.25 442.78-8.95 442.73-5.7Q442.73-3.55 443.4-2.9 444.08-2.25 444.88-1.93 445.68-1.6 446.23-1.55L446.23-1.55Q447.63-1.45 447.63-0.65L447.63-0.65Q447.63-0.1 447.38 0.05 447.13 0.2 446.43 0.2L446.43 0.2 440.87-0.2 435.78 0.15Q433.93 0.15 433.93-0.65L433.93-0.65Q433.93-1.15 434.23-1.33 434.53-1.5 435.4-1.63 436.28-1.75 436.53-1.8L436.53-1.8Q438.23-2.2 438.43-3.8L438.43-3.8Q438.93-8.2 438.93-22.7L438.93-22.7 438.87-31.65Q438.87-32.6 438.33-32.83 437.78-33.05 434.68-33.05 431.58-33.05 429.8-32.85 428.03-32.65 427.73-32.48 427.43-32.3 427-31.75 426.58-31.2 426.3-30.48 426.03-29.75 425.93-29.3L425.93-29.3Q425.78-28.15 424.98-28.15L424.98-28.15Q424.43-28.15 424.43-29L424.43-29Q424.43-31 424.68-32.63 424.93-34.25 424.95-34.5 424.98-34.75 425-34.83 425.03-34.9 425.05-35.08 425.08-35.25 425.12-35.33 425.18-35.4 425.25-35.52 425.33-35.65 425.43-35.7 425.53-35.75 425.68-35.8L425.68-35.8Q425.98-35.9 426.62-35.9Z" fill="#ffffff" data-fill-palette-color="primary"></path></g></svg></g></svg></g></svg></g></svg></g><g><svg viewBox="0 0 72.49913258230308 72.49913258230308" height="72.49913258230308" width="72.49913258230308"><g><svg></svg></g><g id="icon-0"><svg viewBox="0 0 72.49913258230308 72.49913258230308" height="72.49913258230308" width="72.49913258230308"><g><path d="M0 36.25c0-20.02 16.229-36.25 36.25-36.25 20.02 0 36.25 16.229 36.249 36.25 0 20.02-16.229 36.25-36.249 36.249-20.02 0-36.25-16.229-36.25-36.249zM36.25 69.569c18.402 0 33.32-14.918 33.319-33.319 0-18.402-14.918-33.32-33.319-33.32-18.402 0-33.32 14.918-33.32 33.32 0 18.402 14.918 33.32 33.32 33.319z" data-fill-palette-color="accent" fill="#ffffff" stroke="transparent"></path></g><g transform="matrix(1,0,0,1,21.927571609866337,21.330821831479454)"><svg viewBox="0 0 28.6439893625704 29.837488919344167" height="29.837488919344167" width="28.6439893625704"><g><svg xmlns="http://www.w3.org/2000/svg" xmlns:xlink="http://www.w3.org/1999/xlink" version="1.1" x="0" y="0" viewBox="8 7.5 24 25" enable-background="new 0 0 40 40" xml:space="preserve" height="29.837488919344167" width="28.6439893625704" class="icon-s-0" data-fill-palette-color="accent" id="s-0"><path fill-rule="evenodd" clip-rule="evenodd" d="M12 10.5v-3H8v2h2v13c0 1.1 0.9 2 2 2v5h2.3c-0.2 0.3-0.3 0.6-0.3 1 0 1.1 0.9 2 2 2 1.1 0 2-0.9 2-2 0-0.4-0.1-0.7-0.3-1h6.6c-0.2 0.3-0.3 0.6-0.3 1 0 1.1 0.9 2 2 2 1.1 0 2-0.9 2-2 0-0.4-0.1-0.7-0.3-1H30v-2H14v-3h16c1.1 0 2-0.9 2-2v-12H12zM14 22.5h-2v-2h2V22.5zM14 18.5h-2v-2h2V18.5zM14 14.5h-2v-2h2V14.5zM18 22.5h-2v-2h2V22.5zM18 18.5h-2v-2h2V18.5zM18 14.5h-2v-2h2V14.5zM22 22.5h-2v-2h2V22.5zM22 18.5h-2v-2h2V18.5zM22 14.5h-2v-2h2V14.5zM26 22.5h-2v-2h2V22.5zM26 18.5h-2v-2h2V18.5zM26 14.5h-2v-2h2V14.5zM30 22.5h-2v-2h2V22.5zM30 18.5h-2v-2h2V18.5zM30 14.5h-2v-2h2V14.5z" fill="#ffffff" data-fill-palette-color="accent"></path></svg></g></svg></g></svg></g></svg></g></svg></g><defs></defs></svg><rect width="395.52" height="59.32427296159095" fill="none" stroke="none" visibility="hidden"></rect></g></svg></g></svg>