<svg xmlns="http://www.w3.org/2000/svg" version="1.1" xmlns:xlink="http://www.w3.org/1999/xlink" xmlns:svgjs="http://svgjs.dev/svgjs" width="1000" height="212" viewBox="0 0 1000 212"><g transform="matrix(1,0,0,1,-0.6060435368628987,0.30988571042975366)"><svg viewBox="0 0 396 84" data-background-color="#ffffff" preserveAspectRatio="xMidYMid meet" height="212" width="1000" xmlns="http://www.w3.org/2000/svg" xmlns:xlink="http://www.w3.org/1999/xlink"><g id="tight-bounds" transform="matrix(1,0,0,1,0.23999324059769833,-0.12278490413254417)"><svg viewBox="0 0 395.52 84.24542879666873" height="84.24542879666873" width="395.52"><g><svg viewBox="0 0 531.6678669506217 113.2448104486887" height="84.24542879666873" width="395.52"><g transform="matrix(1,0,0,1,136.14786695062176,32.36850340678022)"><svg viewBox="0 0 395.52 48.50780363512825" height="48.50780363512825" width="395.52"><g id="textblocktransform"><svg viewBox="0 0 395.52 48.50780363512825" height="48.50780363512825" width="395.52" id="textblock"><g><svg viewBox="0 0 395.52 48.50780363512825" height="48.50780363512825" width="395.52"><g transform="matrix(1,0,0,1,0,0)"><svg width="395.52" viewBox="4.599999904632568 -35.5 294.3299865722656 36.099998474121094" height="48.50780363512825" data-palette-color="#ea9937"><path d="M4.6 0L4.6-34.9 16.15-34.9Q20.4-34.9 22.8-32.55 25.2-30.2 25.2-25.95L25.2-25.95Q25.2-22.7 23.8-20.83 22.4-18.95 20-18.2L20-18.2 20-18.1Q23.05-17.45 24.83-15.38 26.6-13.3 26.6-9.7L26.6-9.7Q26.6-7.6 25.95-5.83 25.3-4.05 24.1-2.75 22.9-1.45 21.23-0.73 19.55 0 17.5 0L17.5 0 4.6 0ZM7.6-2.6L16.75-2.6Q20.05-2.6 21.75-4.25 23.45-5.9 23.45-8.6L23.45-8.6 23.45-10.65Q23.45-13.35 21.75-15 20.05-16.65 16.75-16.65L16.75-16.65 7.6-16.65 7.6-2.6ZM7.6-19.15L15.9-19.15Q18.9-19.15 20.48-20.65 22.05-22.15 22.05-24.7L22.05-24.7 22.05-26.7Q22.05-29.25 20.48-30.78 18.9-32.3 15.9-32.3L15.9-32.3 7.6-32.3 7.6-19.15ZM45 0.6L45 0.6Q38.95 0.6 36.02-3.93 33.1-8.45 33.1-17.45L33.1-17.45Q33.1-26.45 36.02-30.98 38.95-35.5 45-35.5L45-35.5Q51.05-35.5 53.97-30.98 56.9-26.45 56.9-17.45L56.9-17.45Q56.9-8.45 53.97-3.93 51.05 0.6 45 0.6ZM45-2L45-2Q49.5-2 51.6-5.43 53.7-8.85 53.7-15.1L53.7-15.1 53.7-19.8Q53.7-26 51.6-29.45 49.5-32.9 45-32.9L45-32.9Q40.5-32.9 38.4-29.45 36.3-26 36.3-19.8L36.3-19.8 36.3-15.1Q36.3-8.85 38.4-5.43 40.5-2 45-2ZM75 0.6L75 0.6Q68.95 0.6 66.02-3.93 63.1-8.45 63.1-17.45L63.1-17.45Q63.1-26.45 66.02-30.98 68.95-35.5 75-35.5L75-35.5Q81.05-35.5 83.97-30.98 86.9-26.45 86.9-17.45L86.9-17.45Q86.9-8.45 83.97-3.93 81.05 0.6 75 0.6ZM75-2L75-2Q79.5-2 81.59-5.43 83.7-8.85 83.7-15.1L83.7-15.1 83.7-19.8Q83.7-26 81.59-29.45 79.5-32.9 75-32.9L75-32.9Q70.5-32.9 68.4-29.45 66.3-26 66.3-19.8L66.3-19.8 66.3-15.1Q66.3-8.85 68.4-5.43 70.5-2 75-2ZM114.79 0L103.34-18 97.69-11.5 97.69 0 94.69 0 94.69-34.9 97.69-34.9 97.69-15.45 97.79-15.45 103.29-21.95 114.44-34.9 118.04-34.9 105.39-20.2 118.29 0 114.79 0ZM161.09 0.6L161.09 0.6Q158.84 0.6 157.06-0.13 155.29-0.85 154.06-2.13 152.84-3.4 152.21-5.13 151.59-6.85 151.59-8.9L151.59-8.9Q151.59-10.3 151.89-11.73 152.19-13.15 152.96-14.5 153.74-15.85 155.01-17.05 156.29-18.25 158.24-19.25L158.24-19.25Q156.79-21 155.84-22.98 154.89-24.95 154.89-27.25L154.89-27.25Q154.89-29.1 155.54-30.63 156.19-32.15 157.31-33.23 158.44-34.3 160.01-34.9 161.59-35.5 163.39-35.5L163.39-35.5Q164.99-35.5 166.29-35.05 167.59-34.6 168.61-33.9 169.64-33.2 170.34-32.27 171.04-31.35 171.44-30.4L171.44-30.4 169.04-29.15Q168.34-30.8 166.91-31.93 165.49-33.05 163.29-33.05L163.29-33.05Q160.69-33.05 159.21-31.53 157.74-30 157.74-27.45L157.74-27.45 157.74-26.9Q157.74-25.2 158.59-23.55 159.44-21.9 161.19-19.75L161.19-19.75 170.29-8.8 170.49-8.8Q170.89-10.65 171.06-13.08 171.24-15.5 171.44-18.6L171.44-18.6 177.69-18.6 177.69-16.15 173.84-16.15Q173.54-13.2 173.21-11.1 172.89-9 172.09-6.95L172.09-6.95 177.99 0 174.59 0 170.14-5.25 169.94-5.25Q168.94-2.55 166.69-0.98 164.44 0.6 161.09 0.6ZM161.74-1.95L161.74-1.95Q164.29-1.95 166.16-3.1 168.04-4.25 169.09-6.3L169.09-6.3 159.59-17.55Q156.74-15.95 155.64-13.85 154.54-11.75 154.54-9.45L154.54-9.45 154.54-8.55Q154.54-5.65 156.49-3.8 158.44-1.95 161.74-1.95ZM214.58 0L214.58-34.9 226.13-34.9Q230.38-34.9 232.78-32.55 235.18-30.2 235.18-25.95L235.18-25.95Q235.18-22.7 233.78-20.83 232.38-18.95 229.98-18.2L229.98-18.2 229.98-18.1Q233.03-17.45 234.81-15.38 236.58-13.3 236.58-9.7L236.58-9.7Q236.58-7.6 235.93-5.83 235.28-4.05 234.08-2.75 232.88-1.45 231.21-0.73 229.53 0 227.48 0L227.48 0 214.58 0ZM217.58-2.6L226.73-2.6Q230.03-2.6 231.73-4.25 233.43-5.9 233.43-8.6L233.43-8.6 233.43-10.65Q233.43-13.35 231.73-15 230.03-16.65 226.73-16.65L226.73-16.65 217.58-16.65 217.58-2.6ZM217.58-19.15L225.88-19.15Q228.88-19.15 230.46-20.65 232.03-22.15 232.03-24.7L232.03-24.7 232.03-26.7Q232.03-29.25 230.46-30.78 228.88-32.3 225.88-32.3L225.88-32.3 217.58-32.3 217.58-19.15ZM244.33-34.9L247.33-34.9 247.33-13.85Q247.33-10.8 247.58-8.58 247.83-6.35 248.63-4.88 249.43-3.4 250.93-2.7 252.43-2 254.98-2L254.98-2Q257.53-2 259.03-2.7 260.53-3.4 261.33-4.88 262.13-6.35 262.38-8.58 262.63-10.8 262.63-13.85L262.63-13.85 262.63-34.9 265.63-34.9 265.63-14.45Q265.63-10.45 265.21-7.63 264.78-4.8 263.61-2.95 262.43-1.1 260.36-0.25 258.28 0.6 254.98 0.6L254.98 0.6Q251.68 0.6 249.61-0.25 247.53-1.1 246.36-2.95 245.18-4.8 244.76-7.63 244.33-10.45 244.33-14.45L244.33-14.45 244.33-34.9ZM286.48 0L283.48 0 283.48-14.1 271.03-34.9 274.48-34.9 284.88-17.1 285.08-17.1 295.58-34.9 298.93-34.9 286.48-14.1 286.48 0Z" opacity="1" transform="matrix(1,0,0,1,0,0)" fill="#ea9937" class="undefined-text-0" data-fill-palette-color="primary" id="text-0"></path></svg></g></svg></g></svg></g></svg></g><g><svg viewBox="0 0 113.2448104486887 113.2448104486887" height="113.2448104486887" width="113.2448104486887"><g><svg></svg></g><g id="icon-0"><svg viewBox="0 0 113.2448104486887 113.2448104486887" height="113.2448104486887" width="113.2448104486887"><g><path d="M0 56.622c0-31.272 25.351-56.622 56.622-56.622 31.272 0 56.622 25.351 56.623 56.622 0 31.272-25.351 56.622-56.623 56.623-31.272 0-56.622-25.351-56.622-56.623zM56.622 108.87c28.856 0 52.248-23.392 52.248-52.248 0-28.856-23.392-52.248-52.248-52.248-28.856 0-52.248 23.392-52.248 52.248 0 28.856 23.392 52.248 52.248 52.248z" data-fill-palette-color="accent" fill="#ea9937" stroke="transparent"></path></g><g transform="matrix(1,0,0,1,24.923150573479024,28.31949928607174)"><svg viewBox="0 0 63.39850930173065 56.60581187654522" height="56.60581187654522" width="63.39850930173065"><g><svg xmlns="http://www.w3.org/2000/svg" xmlns:xlink="http://www.w3.org/1999/xlink" version="1.1" x="0" y="0" viewBox="8 13 84 75" enable-background="new 0 0 100 100" xml:space="preserve" height="56.60581187654522" width="63.39850930173065" class="icon-s-0" data-fill-palette-color="accent" id="s-0"><path fill="#ea9937" d="M83.394 13.946C83.166 13.375 82.614 13 82 13H19c-0.593 0-1.13 0.349-1.371 0.891l-9.5 21.365C8.044 35.448 8 35.655 8 35.865v1.093c0 5.334 3.901 9.954 9 11.251V74c0 7.458 6.542 14 14 14h4.5 28H70c7.168 0 13-6.28 13-14V48.337c5.201-1.088 9-5.695 9-11.379v-1.089c0-0.19-0.036-0.378-0.106-0.554L83.394 13.946zM88.54 35H72.304l-4.524-19h13.203L88.54 35zM49 16v19H31.78l4.524-19H49zM64.696 16l4.524 19H52V16H64.696zM48.967 37c-0.023 4.736-3.875 8.583-8.607 8.583-4.737 0-8.592-3.847-8.615-8.583H48.967zM69.123 37c-0.023 4.736-3.854 8.583-8.561 8.583-4.725 0-8.568-3.847-8.592-8.583H69.123zM19.975 16H33.22l-4.524 19h-17.17L19.975 16zM11.002 37H28.74c-0.024 4.657-4.075 8.583-8.869 8.583-0.233 0-0.463-0.017-0.692-0.035-0.059-0.003-0.129-0.007-0.201-0.011C14.584 45.087 11.025 41.364 11.002 37zM37 85V65.996C37 62.564 40.656 60 43.926 60h12.148C59.453 60 62 62.578 62 65.996V85H37zM80 74c0 6.065-4.486 11-10 11h-5V65.996C65 60.951 61.079 57 56.074 57H43.926C39.231 57 34 60.694 34 65.996V85h-3c-5.757 0-11-5.243-11-11V48.583c0.03 0 0.059-0.006 0.089-0.007 0.496-0.009 0.985-0.047 1.467-0.117 0.039-0.005 0.076-0.014 0.114-0.02 0.485-0.076 0.961-0.178 1.426-0.312 0.032-0.009 0.062-0.021 0.093-0.03 0.469-0.139 0.927-0.304 1.372-0.497 0.025-0.011 0.049-0.023 0.074-0.035 0.448-0.198 0.882-0.421 1.3-0.671 0.019-0.011 0.036-0.023 0.054-0.035 0.421-0.255 0.827-0.533 1.213-0.835 0.012-0.01 0.023-0.02 0.036-0.03 0.389-0.307 0.76-0.636 1.108-0.987 0.007-0.007 0.013-0.015 0.02-0.021 0.351-0.355 0.681-0.731 0.984-1.127 0.003-0.004 0.006-0.008 0.009-0.012 0.306-0.4 0.588-0.818 0.841-1.253 1.985 3.569 5.795 5.989 10.159 5.989 4.329 0 8.113-2.385 10.108-5.912 1.993 3.527 5.771 5.912 10.095 5.912 4.305 0 8.068-2.378 10.059-5.896 0.241 0.429 0.511 0.84 0.803 1.233 0.098 0.131 0.211 0.248 0.313 0.375 0.205 0.253 0.407 0.507 0.633 0.742 0.136 0.141 0.285 0.266 0.427 0.399 0.213 0.201 0.423 0.405 0.65 0.589 0.162 0.131 0.336 0.245 0.505 0.367 0.227 0.165 0.45 0.331 0.688 0.479 0.185 0.114 0.379 0.21 0.569 0.314 0.239 0.13 0.479 0.262 0.728 0.375 0.203 0.092 0.414 0.167 0.623 0.248 0.252 0.097 0.504 0.194 0.766 0.273 0.218 0.066 0.441 0.117 0.664 0.17 0.266 0.063 0.53 0.124 0.803 0.168 0.229 0.038 0.463 0.061 0.697 0.084 0.172 0.017 0.337 0.052 0.51 0.061V74zM81.584 45.525c-0.029-0.001-0.056-0.008-0.084-0.008-0.092 0-0.178 0.02-0.264 0.035-0.203 0.014-0.404 0.031-0.611 0.031-4.752 0-8.477-3.767-8.498-8.583h16.871C88.979 41.481 85.799 45.051 81.584 45.525z" data-fill-palette-color="accent"></path></svg></g></svg></g></svg></g></svg></g></svg></g><defs></defs></svg><rect width="395.52" height="84.24542879666873" fill="none" stroke="none" visibility="hidden"></rect></g></svg></g></svg>